<svg width="30" height="34" viewBox="0 0 30 34" fill="none" xmlns="http://www.w3.org/2000/svg">
<g clip-path="url(#clip0_1_2)">
<path d="M13.4456 20.6388C13.3636 20.7431 13.3203 20.8615 13.3203 20.982L13.3275 26.9575C13.3275 26.9575 13.3275 27.4818 14.0422 27.4818H17.3774C18.092 27.4818 18.092 26.9575 18.092 26.9575V16.983C18.0919 16.8221 18.0919 16.8221 18.1892 16.983L25.2388 26.9575C25.477 27.307 25.5961 27.4818 25.9534 27.4818H29.2886C29.2886 27.4818 30.0033 27.4818 30.0033 26.9575V10.5311C30.0033 10.5311 30.0033 10.0068 29.2886 10.0068L25.9534 10.0069C25.9534 10.0069 25.2388 10.0069 25.2388 10.5311V20.2919C25.2388 20.2919 25.2387 20.8413 24.7622 20.3171L20.2977 14.0315C20.2196 13.9226 20.1032 13.8311 19.9605 13.7665C19.8178 13.7019 19.654 13.6666 19.4864 13.6642C19.3187 13.6619 19.1533 13.6925 19.0073 13.753C18.8613 13.8136 18.7401 13.9017 18.6563 14.0083L13.4456 20.6388Z" fill="white"/>
<path fill-rule="evenodd" clip-rule="evenodd" d="M11.3388 23.7673L1.16783 23.8138C1.16783 23.8138 0.453125 23.8138 0.453125 23.2896L0.453155 6.86312C0.453155 6.33887 1.16783 6.33887 1.16783 6.33887H11.8879C11.8879 6.33887 15.9392 6.33887 15.9392 9.30874V12.4551C15.9392 12.4551 15.9392 15.0763 12.3644 15.0763C12.3644 15.0763 15.9392 15.0763 15.9378 17.6976L11.3388 23.7673ZM4.98438 9.13184H9.23209C10.4385 9.13184 11.4165 10.1098 11.4165 11.3162C11.4165 12.5226 10.4385 13.5006 9.2321 13.5006H4.98438V9.13184ZM9.23209 16.6475H4.98438V21.0162H9.2321C10.4385 21.0162 11.4165 20.0382 11.4165 18.8318C11.4165 17.6254 10.4385 16.6475 9.23209 16.6475Z" fill="white"/>
<path d="M14.6875 0.75C36.9307 13.2875 0.18812 21.814 15.8613 33.2494C-3.32299 20.4764 31.359 13.6152 14.6875 0.75Z" fill="#FFDC00"/>
</g>
<defs>
<clipPath id="clip0_1_2">
<rect width="30" height="34" fill="white"/>
</clipPath>
</defs>
</svg>
